<svg enable-background="new 0 0 140 140" height="512" viewBox="0 0 140 140" width="512" xmlns="http://www.w3.org/2000/svg"><circle cx="70" cy="70" fill="#fed35b" r="64"/><path d="m43.0627098 31.502491c-1.8599854 0-3.3699951 1.5100098-3.3699951 3.3701172v70.25c0 .9599609.4100342 1.8300781 1.0599976 2.4399414h-.0100098l26.3642006 26.3642578c.9597778.0427246 1.9227905.0732422 2.8931274.0732422 32.5509644 0 59.406311-24.3071289 63.4535522-55.7565918l-46.7408447-46.7409668z" opacity=".1"/><path d="m86.7117386 31.5050716h-43.6439934c-1.8621521 0-3.3716965 1.5094242-3.3716965 3.3715801v70.2465973c0 1.8619156 1.5095444 3.3715744 3.3716965 3.3715744h53.8645668c1.8620987 0 3.3716354-1.5096588 3.3716354-3.3715744v-60.0260238z" fill="#e1e6e9"/><path d="m86.7117386 31.5050716v10.1875019c0 1.8805809 1.5243073 3.4046516 3.4045944 3.4046516h10.1876144z" fill="#d5d6db"/><g fill="#dbd8dd"><path d="m62.356533 53.29472h30.718025v2.706205h-30.718025z"/><path d="m62.390328 59.162342h6.882368v2.707669h-6.882368z"/><path d="m71.67524 59.162342h13.341125v2.707669h-13.341125z"/><path d="m87.387238 59.118019h5.689233v2.707669h-5.689233z"/></g><path d="m46.923527 51.703854h11.757025v11.757025h-11.757025z" fill="#dd584d"/><g fill="#dbd8dd"><path d="m62.356533 71.59082h30.718025v2.706205h-30.718025z"/><path d="m62.390328 77.458443h6.882368v2.707669h-6.882368z"/><path d="m71.67524 77.458443h13.341125v2.707669h-13.341125z"/><path d="m87.387238 77.414116h5.689233v2.707669h-5.689233z"/></g><path d="m46.923527 69.999954h11.757025v11.757025h-11.757025z" fill="#4da0dc"/><path d="m62.356533 89.886917h30.718025v2.706205h-30.718025z" fill="#dbd8dd"/><path d="m62.390328 95.75454h6.882368v2.707669h-6.882368z" fill="#dbd8dd"/><path d="m71.67524 95.75454h13.341125v2.707669h-13.341125z" fill="#dbd8dd"/><path d="m87.387238 95.710213h5.689233v2.707669h-5.689233z" fill="#dbd8dd"/><path d="m46.923527 88.296051h11.757025v11.757025h-11.757025z" fill="#4abba4"/><path d="m56.8761787 55.2349129-5.62611 5.62611-2.5221672-2.5221672.9312057-.9312057 1.5909615 1.5909615 4.6949043-4.6949044z" fill="#fff"/><path d="m56.8761787 73.5310135-5.62611 5.6261063-2.5221672-2.5221634.9312057-.9312058 1.5909615 1.5909577 4.6949043-4.6949006z" fill="#fff"/><path d="m56.8761787 91.8271103-5.62611 5.6261063-2.5221672-2.5221634.9312057-.9312058 1.5909615 1.5909577 4.6949043-4.6949006z" fill="#fff"/></svg>